<svg id="Layer_1" data-name="Layer 1" xmlns="http://www.w3.org/2000/svg" viewBox="0 0 244.81 392.73"><defs><style>.cls-1,.cls-18,.cls-21,.cls-4{fill:none;}.cls-2,.cls-9{fill:#d8daac;}.cls-18,.cls-19,.cls-2,.cls-21,.cls-3,.cls-4,.cls-5,.cls-6{stroke:#643912;}.cls-2,.cls-21,.cls-3,.cls-4,.cls-5,.cls-6,.cls-9{stroke-miterlimit:10;}.cls-2,.cls-3,.cls-4,.cls-5,.cls-6{stroke-width:3.37px;}.cls-17,.cls-3{fill:#f2dfbb;}.cls-4{stroke-linecap:square;}.cls-5{fill:#3677b1;}.cls-6{fill:#47af6c;}.cls-10,.cls-11,.cls-13,.cls-14,.cls-15,.cls-16,.cls-19,.cls-20,.cls-7{fill:#643912;}.cls-8{fill:#ea7217;}.cls-9{stroke:#d8daac;}.cls-19,.cls-9{stroke-width:0.28px;}.cls-10,.cls-11,.cls-12,.cls-13,.cls-14,.cls-15,.cls-16,.cls-17,.cls-20,.cls-21{isolation:isolate;}.cls-10,.cls-11,.cls-13,.cls-14{font-size:7.85px;}.cls-10,.cls-11,.cls-13,.cls-14,.cls-15,.cls-16,.cls-17,.cls-20,.cls-21{font-family:FacultyGlyphic-Regular, Faculty Glyphic;}.cls-11{letter-spacing:-0.02em;}.cls-13{letter-spacing:-0.06em;}.cls-14{letter-spacing:-0.09em;}.cls-15{font-size:15.64px;}.cls-16{font-size:15.46px;}.cls-17{font-size:10.78px;}.cls-18,.cls-19{stroke-linecap:round;stroke-linejoin:round;}.cls-18{stroke-width:1.44px;}.cls-20,.cls-21{font-size:5.38px;}.cls-21{stroke-width:0.25px;}</style></defs><rect class="cls-1" x="187.32" y="324.03" width="55.71" height="67.52"/><polygon class="cls-2" points="186.96 323.07 101.07 306.06 83.09 342.96 57.11 330.4 54.2 335.64 2.27 309.48 18.58 277.4 13.04 272.81 109.87 87.05 114.41 89.22 121.98 65.01 115.94 60.71 145.86 2.4 189.29 29.36 243.12 29.36 243.12 391.05 186.4 391.05 186.96 323.07"/><polygon class="cls-3" points="189.21 188.38 189.21 227.32 176.68 233.42 159.81 204.22 189.21 188.38"/><polyline class="cls-4" points="186.96 323.24 243.04 323.24 243.04 299.82 189.21 299.82 189.21 229.56 189.21 190.62 189.21 119.81 243.04 119.81 243.04 89.68 189.21 89.68 189.21 35.79 189.29 29.28"/><path class="cls-5" d="M197.58,170.88a59.89,59.89,0,0,1-72.88,41.74l32.37-115.3A59.89,59.89,0,0,1,197.58,170.88Z" transform="translate(-34.69 -35.47)"/><polygon class="cls-3" points="54.16 335.43 71.12 301.8 59.78 298.19 66.61 256.84 91.12 260.83 112.47 222.91 75.03 193.27 59.81 222.91 43.16 215 13.04 272.77 18.58 277.36 2.27 309.45 54.16 335.43"/><polyline class="cls-6" points="189.21 287.59 189.21 240.51 243.04 240.45 243.04 299.82 189.21 299.82 189.21 287.59"/><rect class="cls-7" x="110.71" y="312.07" width="13.29" height="17" transform="translate(-257.88 309.01) rotate(-73.91)"/><path class="cls-8" d="M101.44,375.21l-7.64,3a.81.81,0,0,0-.49.69.78.78,0,0,0,.42.72l2.06,1.06-3.87,7.6a.78.78,0,0,0,.34,1l4.12,2.12a.77.77,0,0,0,1-.31h0l3.89-7.56,2.06,1.07a.8.8,0,0,0,.84-.09.82.82,0,0,0,.2-.25.73.73,0,0,0,.06-.56l-2-7.95a.82.82,0,0,0-.4-.51A.76.76,0,0,0,101.44,375.21Zm1.13,7.22-1.24-.64a.78.78,0,0,0-1,.34l-3.89,7.55-2.75-1.41,3.89-7.56a.77.77,0,0,0-.33-1h0L96,379.08l5.24-2.07Z" transform="translate(-34.69 -35.47)"/><path class="cls-7" d="M161.92,213.66l-1.82,5a.5.5,0,0,0,.65.64l1.4-.56,2,5.13a.5.5,0,0,0,.65.29l2.8-1.09a.5.5,0,0,0,.28-.65h0l-2-5.11,1.4-.56a.5.5,0,0,0,.32-.44.74.74,0,0,0,0-.21.47.47,0,0,0-.24-.26l-4.71-2.47a.51.51,0,0,0-.42,0A.47.47,0,0,0,161.92,213.66Zm4,2.57-.84.33a.5.5,0,0,0-.29.63h0l2,5.13-1.87.73-2-5.13a.5.5,0,0,0-.64-.29h0l-.84.32,1.25-3.42Z" transform="translate(-34.69 -35.47)"/><path class="cls-7" d="M220.07,326.72l-4.15-3.36a.48.48,0,0,0-.69.05h0a.54.54,0,0,0-.12.34v1.5l-5.5.17a.5.5,0,0,0-.49.51h0l.1,3a.49.49,0,0,0,.5.48h0l5.5-.17.06,1.5a.49.49,0,0,0,.3.45.74.74,0,0,0,.21,0,.55.55,0,0,0,.32-.14l3.89-3.63a.5.5,0,0,0,0-.71h.07Zm-3.71,2.9v-.9a.5.5,0,0,0-.53-.47h0l-5.51.17-.06-2,5.5-.17a.52.52,0,0,0,.49-.51h0v-.9l2.8,2.32Z" transform="translate(-34.69 -35.47)"/><path class="cls-7" d="M100.27,354.81l2.17,4.86a.49.49,0,0,0,.66.24h0a.49.49,0,0,0,.25-.24l.63-1.36,5,2.3a.5.5,0,0,0,.66-.24h0l1.25-2.72a.51.51,0,0,0-.23-.67h0l-5-2.3.63-1.36a.5.5,0,0,0-.08-.56.55.55,0,0,0-.17-.13.53.53,0,0,0-.35,0l-5.1,1.51a.49.49,0,0,0-.31.27A.47.47,0,0,0,100.27,354.81Zm4.65-.93-.38.81a.48.48,0,0,0,.23.65h0l5,2.31-.85,1.82-5-2.31a.52.52,0,0,0-.67.25h0l-.37.82-1.49-3.33Z" transform="translate(-34.69 -35.47)"/><path class="cls-9" d="M219,249.34l-4.73-3.25-.14-.13c-.14-.14-.14-.14-.14-.38s.24-.56.63-.87a1.9,1.9,0,0,0,.95-1.49,2,2,0,0,0-3.93,0,.38.38,0,0,0,.39.39h0a.38.38,0,0,0,.39-.37v0a1.18,1.18,0,0,1,2.36,0c0,.36-.24.56-.63.87a1.89,1.89,0,0,0-.94,1.49,1.09,1.09,0,0,0,.39,1l5,3.44a.39.39,0,0,1-.23.71H208.12a.39.39,0,0,1-.37-.27.39.39,0,0,1,.14-.44l4-2.9a.4.4,0,0,0,.1-.55h0a.4.4,0,0,0-.56-.09h0l-4,2.91a1.17,1.17,0,0,0-.28,1.63h0a1.2,1.2,0,0,0,1,.49h10.22a1.18,1.18,0,0,0,1.18-1.18,1.15,1.15,0,0,0-.49-1Z" transform="translate(-34.69 -35.47)"/><text class="cls-10" transform="translate(32.35 313.29) rotate(-1.81)">Ipa</text><text class="cls-11" transform="translate(44.08 312.92) rotate(-1.81)">r</text><g class="cls-12"><text class="cls-13" transform="translate(48.83 312.77) rotate(-1.81)">4</text><text class="cls-14" transform="translate(53.59 312.62) rotate(-1.81)">.</text><text class="cls-10" transform="translate(54.74 312.58) rotate(-1.81)">0</text></g><text class="cls-15" transform="translate(108.89 133.76)">IB028</text><text class="cls-16" transform="translate(194.3 276.02)">IB025</text><text class="cls-17" transform="translate(78.78 288.62) rotate(-1.81)">R</text><g id="Environment_Coffee" data-name="Environment Coffee"><path id="Vector" class="cls-18" d="M128.92,238.79h5m0,0h0m-.08,0h.08m-.08,0a5.05,5.05,0,0,1-5-5v-2.86a.67.67,0,0,1,.67-.65h8.73a.65.65,0,0,1,.64.65h0m-5,7.91h5m-5,0a5,5,0,0,0,5-5v0m0-2.87H140a1.8,1.8,0,0,1,0,3.59h-1v-.69m0-2.87v2.87m-2.15-7.18-.72,1.43m-1.43-1.43L133.9,228m-1.44-1.44-.72,1.44" transform="translate(-34.69 -35.47)"/></g><path class="cls-19" d="M81.23,303.12a.87.87,0,1,0,.87.87h0A.87.87,0,0,0,81.23,303.12Z" transform="translate(-34.69 -35.47)"/><path class="cls-19" d="M86.54,303.12a.87.87,0,1,0,.87.87h0A.87.87,0,0,0,86.54,303.12Z" transform="translate(-34.69 -35.47)"/><path class="cls-19" d="M89.57,299.64H78.17a1.6,1.6,0,0,0-1.58,1.59v12.21A1.6,1.6,0,0,0,78.17,315h11.4a1.59,1.59,0,0,0,1.59-1.59V301.23a1.6,1.6,0,0,0-1.58-1.59ZM81,314a.06.06,0,0,0,0-.06l.18-4,.18,4V314Zm5.32,0V314l.18-4,.17,4V314Zm3.82-.58a.56.56,0,0,1-.52.58H87.58V314l.19-6.48.16,1.75a.36.36,0,0,0,.39.28.35.35,0,0,0,.29-.32v-2.86c0-1.2-1.45-1.26-2.07-1.26s-2.07.06-2.07,1.26v2.84a.34.34,0,0,0,.39.28.35.35,0,0,0,.28-.28l.16-1.74.18,6.48V314h-3.2v-.06l.18-6.46.16,1.75a.35.35,0,0,0,.39.28.35.35,0,0,0,.29-.32v-2.86c0-1.2-1.46-1.26-2.07-1.26s-2.07.06-2.07,1.26v2.84a.34.34,0,0,0,.39.28.35.35,0,0,0,.28-.28l.16-1.74.18,6.48V314h-2a.56.56,0,0,1-.56-.56V301.23a.56.56,0,0,1,.56-.56h11.4a.56.56,0,0,1,.56.56v12.22Z" transform="translate(-34.69 -35.47)"/><path class="cls-19" d="M85.12,297l1.19-1.19v2.68a.45.45,0,0,0,.89,0h0v-2.64l1.2,1.19a.43.43,0,0,0,.61,0h0a.45.45,0,0,0,0-.63h0l-2-1.94-.3-.32-.32.32-1.93,1.94a.45.45,0,0,0,.63.63h0Z" transform="translate(-34.69 -35.47)"/><path class="cls-19" d="M80.92,298.88l.32.32.31-.32,2-1.94a.45.45,0,0,0,0-.63h0a.44.44,0,0,0-.62,0h0l-1.19,1.19v-2.67a.44.44,0,0,0-.38-.51.45.45,0,0,0-.51.38.29.29,0,0,0,0,.13v2.67l-1.18-1.19a.45.45,0,0,0-.63,0,.44.44,0,0,0,0,.61l0,0Z" transform="translate(-34.69 -35.47)"/><text class="cls-10" transform="translate(40.33 289.49)">IB110</text><path class="cls-7" d="M120.15,268.46h-3.09a1.37,1.37,0,0,0-1.35,1.35V274a.56.56,0,0,0,.55.57h0a.58.58,0,0,0,.57-.57h0v-4.21h0a.13.13,0,0,1,.12-.11.11.11,0,0,1,.11.11v9.64a.69.69,0,0,0,1.38,0V274h.3v5.5a.67.67,0,0,0,.67.69h0a.69.69,0,0,0,.69-.69h0v-9.63a.11.11,0,0,1,.1-.12h0a.14.14,0,0,1,.13.11h0V274a.56.56,0,0,0,.55.57h0a.56.56,0,0,0,.57-.55v-4.23h0A1.37,1.37,0,0,0,120.15,268.46Z" transform="translate(-34.69 -35.47)"/><circle class="cls-7" cx="83.92" cy="231.43" r="1.19"/><path class="cls-7" d="M131.24,273.14s-1.06-3-1.22-3.48c-.26-.77-.71-1.16-1.32-1.16h-2c-.61,0-1,.39-1.32,1.16l-1.21,3.48a.57.57,0,0,0,1,.5.65.65,0,0,0,0-.13c0-.09.66-1.83,1-2.84a41,41,0,0,1-.81,4.24.31.31,0,0,0,.24.36h.5v4.13a.69.69,0,0,0,.6.77.7.7,0,0,0,.77-.6.49.49,0,0,0,0-.17v-4.13h.29v4.13a.69.69,0,0,0,.6.77.7.7,0,0,0,.77-.6.49.49,0,0,0,0-.17v-4.13h.43A.32.32,0,0,0,130,275v0c-.88-4.52-.78-4-.81-4.24l1,2.84a.58.58,0,0,0,.73.36.58.58,0,0,0,.35-.73Z" transform="translate(-34.69 -35.47)"/><circle class="cls-7" cx="93.03" cy="231.47" r="1.18"/><path class="cls-7" d="M123,266.47a.44.44,0,0,0-.44.44h0v12a.44.44,0,0,0,.44.44h0a.43.43,0,0,0,.44-.42V266.88A.45.45,0,0,0,123,266.47Z" transform="translate(-34.69 -35.47)"/><path class="cls-7" d="M260.19,342.21h-3.08a1.36,1.36,0,0,0-1.36,1.35v4.22a.58.58,0,0,0,.57.57h0a.58.58,0,0,0,.58-.57v-4.21h0a.11.11,0,1,1,.22,0v9.64a.69.69,0,0,0,1.38,0h0v-5.5h.3v5.5a.69.69,0,0,0,.69.69h0a.67.67,0,0,0,.68-.68h0v-9.63a.12.12,0,0,1,.12-.12.11.11,0,0,1,.12.1h0v4.21a.56.56,0,0,0,.55.57h0a.56.56,0,0,0,.57-.55v-4.23h0A1.37,1.37,0,0,0,260.19,342.21Z" transform="translate(-34.69 -35.47)"/><circle class="cls-7" cx="223.96" cy="305.18" r="1.19"/><path class="cls-7" d="M271.28,346.88l-1.22-3.49c-.26-.76-.71-1.15-1.31-1.15h-2c-.61,0-1,.39-1.31,1.15l-1.21,3.49a.57.57,0,0,0,1,.5.65.65,0,0,0,0-.13c0-.09.66-1.84,1-2.84a41,41,0,0,1-.81,4.24.31.31,0,0,0,.24.36h.51v4.13a.68.68,0,0,0,1.36,0h0V349h.3v4.13a.68.68,0,0,0,1.36,0h0V349h.44a.32.32,0,0,0,.32-.3s0-.05,0-.07c-.88-4.52-.78-4-.81-4.24l1,2.84a.56.56,0,0,0,.72.35.57.57,0,0,0,.36-.72Z" transform="translate(-34.69 -35.47)"/><circle class="cls-7" cx="233.07" cy="305.22" r="1.18"/><path class="cls-7" d="M263,340.22a.44.44,0,0,0-.44.44h0v12a.44.44,0,1,0,.87.13.29.29,0,0,0,0-.13v-12A.44.44,0,0,0,263,340.22Z" transform="translate(-34.69 -35.47)"/><path class="cls-7" d="M260.19,134.65h-3.08a1.36,1.36,0,0,0-1.36,1.35v4.22a.58.58,0,0,0,.57.57h0a.58.58,0,0,0,.58-.57V136h0a.11.11,0,0,1,.1-.12h0a.13.13,0,0,1,.11.12v9.64a.69.69,0,1,0,1.38,0v-5.5h.3v5.5a.69.69,0,0,0,.69.69h0a.67.67,0,0,0,.68-.68h0V136a.12.12,0,0,1,.12-.12.11.11,0,0,1,.12.1h0v4.21a.58.58,0,0,0,.57.57h0a.56.56,0,0,0,.57-.55V136h0A1.37,1.37,0,0,0,260.19,134.65Z" transform="translate(-34.69 -35.47)"/><circle class="cls-7" cx="223.96" cy="97.61" r="1.19"/><path class="cls-7" d="M271.28,139.33l-1.22-3.45c-.26-.77-.71-1.16-1.31-1.16h-2c-.61,0-1,.39-1.31,1.16l-1.22,3.49a.57.57,0,0,0,.34.72h0a.57.57,0,0,0,.72-.35c0-.09.66-1.84,1-2.84a40.85,40.85,0,0,1-.81,4.23.32.32,0,0,0,.25.37h.5v4.13a.68.68,0,0,0,1.36,0v-4.13h.3v4.13a.68.68,0,1,0,1.36,0v-4.13h.44a.32.32,0,0,0,.32-.32s0,0,0-.06c-.88-4.51-.78-4-.81-4.23l1,2.84a.58.58,0,0,0,1.11-.36Z" transform="translate(-34.69 -35.47)"/><circle class="cls-7" cx="233.07" cy="97.66" r="1.18"/><path class="cls-7" d="M263,132.66a.44.44,0,0,0-.44.44h0v12a.44.44,0,0,0,.87.13.29.29,0,0,0,0-.13v-12A.44.44,0,0,0,263,132.66Z" transform="translate(-34.69 -35.47)"/><rect class="cls-8" x="171.02" y="278.9" width="11.62" height="11.62" transform="translate(-167.34 377.89) rotate(-80.73)"/><rect class="cls-8" x="149.98" y="251.43" width="9.59" height="8.09" transform="translate(-162.83 315.81) rotate(-77.5)"/><rect class="cls-8" x="149.76" y="262.85" width="9.59" height="4.41" transform="translate(-172.36 323.1) rotate(-77.5)"/><rect class="cls-8" x="178.03" y="266.41" width="2.04" height="7.06" transform="translate(-150.69 368.15) rotate(-80.82)"/><rect class="cls-8" x="179.97" y="268.73" width="2.01" height="4.97" transform="translate(-128.93 60.91) rotate(-23.86)"/><rect class="cls-8" x="177.89" y="118.96" width="5.46" height="12.96"/><rect class="cls-8" x="177.89" y="133.25" width="3.8" height="21.64"/><rect class="cls-8" x="186.2" y="190.34" width="20.2" height="6.12" transform="translate(-110.29 202.73) rotate(-53.93)"/><rect class="cls-8" x="175.95" y="205.53" width="13.96" height="2.83" transform="translate(-123.08 119.79) rotate(-37.74)"/><rect class="cls-8" x="152.01" y="219.78" width="6.88" height="3.4" transform="translate(-92.1 18.94) rotate(-16.81)"/><rect class="cls-8" x="100.75" y="183.1" width="6.86" height="3.39"/><rect class="cls-8" x="186.07" y="228.04" width="18.29" height="5.49" transform="translate(-139.51 158.51) rotate(-42.78)"/><rect class="cls-8" x="179.79" y="156.37" width="3.8" height="8.4"/><rect class="cls-8" x="140.26" y="277.77" width="15.22" height="4.06" transform="translate(-186.79 345.2) rotate(-80.73)"/><rect class="cls-8" x="198.44" y="271.55" width="2.46" height="6.52" transform="translate(-156.7 130.21) rotate(-35.26)"/><rect class="cls-8" x="193.87" y="265.13" width="2.41" height="6.37" transform="translate(-153.8 126.37) rotate(-35.26)"/><rect class="cls-8" x="187.24" y="250.54" width="2.98" height="14.72" transform="translate(-138.36 93.45) rotate(-30)"/><rect class="cls-8" x="191.13" y="293.11" width="13.49" height="3.01" transform="translate(-175.53 365.08) rotate(-73.48)"/><rect class="cls-8" x="145.1" y="323.57" width="3.01" height="14.72" transform="translate(-243.11 365.91) rotate(-77.33)"/><rect class="cls-8" x="160.4" y="329.64" width="2.8" height="7.95" transform="translate(-239.05 356.55) rotate(-73.19)"/><rect class="cls-8" x="170.6" y="331.59" width="2.83" height="7.24" transform="translate(-225.47 401.4) rotate(-78.49)"/><rect class="cls-8" x="184.37" y="329.26" width="2.92" height="17.53" transform="translate(-217.18 417.19) rotate(-78.49)"/><rect class="cls-8" x="180.53" y="298.95" width="3.9" height="19.58" transform="translate(-191.15 390.47) rotate(-78.49)"/><rect class="cls-8" x="140.25" y="292.57" width="10.75" height="2.08" transform="translate(-202.3 354.56) rotate(-80.73)"/><text class="cls-20" transform="translate(141.38 251.7)">1</text><text class="cls-21" transform="translate(141.38 251.7)">1</text><text class="cls-20" transform="translate(106.62 246.02)">3</text><text class="cls-21" transform="translate(106.62 246.02)">3</text><text class="cls-20" transform="translate(125 226.04)">2</text><text class="cls-21" transform="translate(125 226.04)">2</text><text class="cls-20" transform="translate(105.04 260)">4</text><text class="cls-21" transform="translate(105.04 260)">4</text><text class="cls-20" transform="translate(142.01 231.45)">14</text><text class="cls-21" transform="translate(142.01 231.45)">14</text><text class="cls-20" transform="translate(156.62 221.79)">13</text><text class="cls-21" transform="translate(156.62 221.79)">13</text><text class="cls-20" transform="translate(161.85 232.29)">12</text><text class="cls-21" transform="translate(161.85 232.29)">12</text><text class="cls-20" transform="translate(167.18 238.93)">11</text><text class="cls-21" transform="translate(167.18 238.93)">11</text><text class="cls-20" transform="translate(165.8 262.94)">10</text><text class="cls-21" transform="translate(165.8 262.94)">10</text><text class="cls-20" transform="translate(149.63 300.46)">8</text><text class="cls-21" transform="translate(149.63 300.46)">8</text><text class="cls-20" transform="translate(144.42 280.26)">9</text><text class="cls-21" transform="translate(144.42 280.26)">9</text><text class="cls-20" transform="translate(172.05 127.47)">19</text><text class="cls-21" transform="translate(172.05 127.47)">19</text><text class="cls-20" transform="translate(170 145.77)">20</text><text class="cls-21" transform="translate(170 145.77)">20</text><text class="cls-20" transform="translate(172.34 163.48)">22</text><text class="cls-21" transform="translate(172.34 163.48)">22</text><text class="cls-20" transform="translate(160.29 166.98)">21</text><text class="cls-21" transform="translate(160.29 166.98)">21</text><text class="cls-20" transform="translate(147.99 177.58)">17</text><text class="cls-21" transform="translate(147.99 177.58)">17</text><text class="cls-20" transform="translate(119.58 190.73)">16</text><text class="cls-21" transform="translate(119.58 190.73)">16</text><text class="cls-20" transform="translate(94.99 186.87)">15</text><text class="cls-21" transform="translate(94.99 186.87)">15</text><text class="cls-20" transform="translate(153.5 191.84)">18</text><text class="cls-21" transform="translate(153.5 191.84)">18</text><text class="cls-20" transform="translate(137.44 297.88)">7</text><text class="cls-21" transform="translate(137.44 297.88)">7</text><text class="cls-20" transform="translate(127.2 295.46)">6</text><text class="cls-21" transform="translate(127.2 295.46)">6</text><text class="cls-20" transform="translate(111.38 292.51)">5</text><text class="cls-21" transform="translate(111.38 292.51)">5</text></svg>