<svg xmlns="http://www.w3.org/2000/svg" viewBox="0 0 448.22 141.87"><defs><style>.cls-1{fill:#fff;}</style></defs><title>Asset 14</title><g id="Layer_2" data-name="Layer 2"><g id="Layer_1-2" data-name="Layer 1"><path class="cls-1" d="M153.72,113.71q1.07-.88,2-1.83c-.14.14-.29.26-.43.39C154.81,112.76,154.27,113.24,153.72,113.71Z"/><path class="cls-1" d="M152,115.13l1-.27c.95-1,1.88-2,2.76-3q-1,.95-2,1.83C153.16,114.2,152.58,114.67,152,115.13Z"/><path class="cls-1" d="M167.89,71.45C164.39,35.73,161.07,7.2,115.12,1A119.92,119.92,0,0,0,92.73.18C44.45,2.74-.43,33.13,0,71.45c.23,20.2,8.31,40,23.58,53.38,11.87,10.43,28.1,17,48.37,17,29.54,0,62.38-8.08,81.05-27l-1,.27a32.52,32.52,0,0,1-9.54,5.2,75.07,75.07,0,0,1-25.89,3.36,42.73,42.73,0,0,1-14.39-2.77c-9.78-4.07-19-3.67-28.66.23-9.39,3.82-18.45,3.32-25.79-1.07a27.35,27.35,0,0,1-6-4.9C33.11,106,31,95.31,34.52,83.52c.33-1.07.7-2.14,1-3.22a9.2,9.2,0,0,0,0-1.71c-1.81.28-3.22.46-4.61.75a9,9,0,0,1-7.75-2.06c-1.74-1.41-1.83-3.61-.22-5.86,1.36-1.92,2.91-3.71,4.67-6-3.31-4.22-5.57-10.81-11.35-15.07-.8-.58-1.59-2.62-1.31-2.88a6.39,6.39,0,0,1,3.79-1.75c.72,0,1.94,1.71,2,2.75.65,6.11,4.38,10.6,8.3,15,.75.85,2.3,1,3.54,1.51,1.63-6.17-1.57-13.7-6.74-17.15a3.25,3.25,0,0,1-1-3c.19-.67,1.78-1.38,2.73-1.36,2.33.08,3.65,2.33,4,5.08.72,6,2.86,12,8,15.31,7.08,4.48,7.2,8.7,4.7,17.39-.88,3.09-1.68,6.51-1.17,9.59,1.37,8.19,11.72,13.29,19.57,10,8.88-3.77,18-7,26.61-11.31,2-1,3.93-2,5.84-3.17C107.74,78.8,125.9,57.74,111.87,44a29.43,29.43,0,0,0-10.78-7c-9.63-3.57-18.5-.59-24.15,5.81a25.71,25.71,0,0,0-6.18,14.93A16.85,16.85,0,0,0,82,75.3a19.37,19.37,0,0,0,8.06,1c5.63-.44,11.28-5.72,11.71-10.92.46-5.77-3.46-10.68-9.61-12-4.12-.87-8.61,1.13-10,4.72a4,4,0,0,0,.16,3.31c.37.56,2,.56,3.07.42,1.42-.17,2.91-.56,3.19,1.27s-1.25,2.27-2.78,2.41c-3.7.33-6.47-2.46-5.84-6,.65-3.79,2.74-6.63,6.65-7.72,4.69-1.32,9.14-.75,12.78,2.67,8,7.54,5.45,21.55-4.83,26.53a29.18,29.18,0,0,1-8.7,2.64c-10,1.46-21.55-2-28.27-13.5a30.29,30.29,0,0,1,1.31-32.93,38.73,38.73,0,0,1,21.89-14.8,47.8,47.8,0,0,1,37,5.45c28,17.49,15,54.4-10.73,66.24-3.3,1.51-6.81,2.71-10.7,4.17-.54.2-1.07.39-1.63.61,1.22.12,1.84.25,2.45.25h0a34.88,34.88,0,0,1,18.14,5.07,42,42,0,0,0,20.87,5.63A55.31,55.31,0,0,0,157,106.25a17.75,17.75,0,0,0,4.89-3.22C166.77,94.21,169.09,83.74,167.89,71.45Z"/><path class="cls-1" d="M152,115.13c.6-.46,1.18-.93,1.74-1.42C153.15,114.2,152.58,114.67,152,115.13Z"/><path class="cls-1" d="M271.29,85.82q-2.62,4.91-7.45,18.33a115.36,115.36,0,0,0-3.36,13.09,93.55,93.55,0,0,1-3.62,13.22,1.86,1.86,0,0,1-1.41.67,4.79,4.79,0,0,1-2.42-1q-2.62-6.25-6.11-20.55Q243.64,96,240.34,88.84c.59-1.12,1.08-1.68,1.48-1.68a2,2,0,0,1,1.07-.33c.72,0,2,.67,3.76,2a101,101,0,0,1,4.63,13.49q1.75,6.92,3.56,13.76,2.49-8.19,5-16.44a141.43,141.43,0,0,1,6-16c.67-1.16,1.83-1.54,3.49-1.14a1.75,1.75,0,0,1,.67.5,1.45,1.45,0,0,0,1,.48c.41,0,.6.34.6,1A3,3,0,0,1,271.29,85.82Z"/><path class="cls-1" d="M295.38,109.85q-3.94,8.94-11.2,10.61a8.1,8.1,0,0,1-1.75.2c-2.55,0-5.13-1.39-7.72-4.16a10.36,10.36,0,0,1-2.62-7.32,23.35,23.35,0,0,1,3-10.67,16.13,16.13,0,0,1,3.08-4.16,5.85,5.85,0,0,1,4-2.08,3,3,0,0,1,2,.8,18.5,18.5,0,0,0,5,2.15,7.58,7.58,0,0,1,4.57,3.62,17.47,17.47,0,0,1,2.35,7.72A7.81,7.81,0,0,1,295.38,109.85Zm-14-28.39c.4,1.61.31,2.71-.27,3.29a2.87,2.87,0,0,1-2.42.73,3.88,3.88,0,0,1-2.48-1.2A3.32,3.32,0,0,1,275,81.86a2.25,2.25,0,0,1,.67-1.54,1.73,1.73,0,0,1,1.41-.68l2.55.21A2.17,2.17,0,0,1,281.36,81.46ZM290,105.69c-.31-3.27-1.18-5.21-2.61-5.84a1.67,1.67,0,0,0-.61-.13c-.53,0-1.21.45-2,1.34a6.41,6.41,0,0,1-2.08,1.81c-.32.14-.76,0-1.34-.4a3.11,3.11,0,0,0-1.15-.61.45.45,0,0,0-.33.14q-2.36,2-2.35,6.24a8.68,8.68,0,0,0,1.34,4.9c1.25,1.84,2.31,2.75,3.16,2.75q3,0,5.7-3.69C289.48,109.88,290.24,107.7,290,105.69Zm2.62-24.23c.41,1.61.31,2.71-.27,3.29a2.84,2.84,0,0,1-2.41.73,3.93,3.93,0,0,1-2.55-1.2,3.32,3.32,0,0,1-1.21-2.42,2.25,2.25,0,0,1,.67-1.54,1.73,1.73,0,0,1,1.41-.68q1.28.08,2.55.21A2.18,2.18,0,0,1,292.63,81.46Z"/><path class="cls-1" d="M317.73,116.58q-.12.08-7.85,5.6a46.67,46.67,0,0,1-8,4.79,1.82,1.82,0,0,1-.8.2,2.2,2.2,0,0,1-1.75-1.21c-.8-1.08-1.23-1.64-1.27-1.68-.1-3.94.16-9.43.73-16.47q1-11.24,1-16.2,0-3.44-.27-6.46a3,3,0,0,1,2.22-.87c1.7,0,2.68.63,2.95,1.88q.21,5.5-.47,16.48c-.45,7.31-.62,12.81-.54,16.48a32.79,32.79,0,0,0,4.9-2.82,45.61,45.61,0,0,1,4.77-3,9.09,9.09,0,0,0,1.18-.14,8.47,8.47,0,0,1,1.24-.13,2.06,2.06,0,0,1,1.94,1.08A2.1,2.1,0,0,1,317.73,116.58Z"/><path class="cls-1" d="M343.91,107.57a38.16,38.16,0,0,0-2.35,11.08c-.22,3.8-.43,7.6-.6,11.41-.09,1.11-.83,1.67-2.22,1.67a3.11,3.11,0,0,1-1.14-.2,4.45,4.45,0,0,1-2.88-4.49,22.17,22.17,0,0,1,.26-2.86,22.32,22.32,0,0,0,.27-2.78c.18-1.3.41-3.25.67-5.84a30.3,30.3,0,0,1-10.47,6.51,5,5,0,0,1-1.61.27c-2.06,0-4-1.17-5.7-3.49a7.75,7.75,0,0,1-1.48-4.84,19.28,19.28,0,0,1,1.14-6,74,74,0,0,1,11.34-21.28q3.9-5.16,6.92-5.17c1.79,0,2.79.67,3,2A2.09,2.09,0,0,1,337.94,86q-2.35,1.28-2.49,1.41a66.83,66.83,0,0,0-10.33,16.11,26,26,0,0,0-2.89,10.94c0,.58,0,1.17.07,1.75.09,0,.22.26.4.64s.42.5.74.37q4.43-1.76,13.36-9.2a7.74,7.74,0,0,0,1.54-3.09,2.45,2.45,0,0,1,2.42-1.88c-.36,0,0,0,1.07-.13.54-.09.89,0,1.07.27a5.92,5.92,0,0,1,1.28,3.08A3.42,3.42,0,0,1,343.91,107.57Z"/><path class="cls-1" d="M370.22,84.61a145.48,145.48,0,0,1-6.91,19.74q-5.91,14.16-7.58,19.53a8.94,8.94,0,0,0-.34,2.69q.06,2.2,0,2.82a2.25,2.25,0,0,1-2.48,2.34,3.58,3.58,0,0,1-2.46-.77,2.27,2.27,0,0,1-1.24-1.91,38.7,38.7,0,0,1,2.48-11.21l4.17-10.74q-4.77-12.75-8.13-18.66a1.31,1.31,0,0,1-.19-.67,1.8,1.8,0,0,1,.83-1.38,2.8,2.8,0,0,1,1.65-.64c.09,0,.94.25,2.55.74a48.37,48.37,0,0,1,3.49,6.58c1,2.28,2,4.57,3,6.85.9-2.69,1.79-5.35,2.69-8a35.86,35.86,0,0,1,3.42-7.65,2,2,0,0,1,1.88-.94A4.28,4.28,0,0,1,370.22,84.61Z"/><path class="cls-1" d="M395.87,90.79a74.7,74.7,0,0,1-7.32,2.35,72,72,0,0,0-7.32,2.35,35.42,35.42,0,0,0-.87,7.78,7,7,0,0,0,2.48.41,22.1,22.1,0,0,0,3.16-.34,23.16,23.16,0,0,1,3.15-.33,6.08,6.08,0,0,1,3.22.8,4.65,4.65,0,0,1,.94,1.75.79.79,0,0,1-.47.73,10.06,10.06,0,0,0-.94.94,1.5,1.5,0,0,1-1.34.54,27.47,27.47,0,0,1-5.17.4,15.11,15.11,0,0,0-5,.81,33.7,33.7,0,0,0-1.28,7.85,7.32,7.32,0,0,0,.54,3.09q3.15,2.22,10.94,1.88a1.84,1.84,0,0,0,1.14-.5,1.76,1.76,0,0,1,1-.51q1.88-.41,2.48,2.82a2.68,2.68,0,0,1-.36,2,2,2,0,0,1-1.65,1,50.46,50.46,0,0,1-14.1-1.28,7.13,7.13,0,0,1-3.42-2.08,6,6,0,0,1-1.74-3.62,44.65,44.65,0,0,1,0-10.48c-1.25-.85-1.82-1.67-1.68-2.48,0-.4.39-.77,1-1.11s1-.68,1.11-1,.26-2.48.53-6.37q-3.76-.75-3.69-2.82a3.61,3.61,0,0,1,2.35-3.09l4.3-1.75a33.63,33.63,0,0,1,6.31-2.28q3.21-.87,6.51-1.68a4.58,4.58,0,0,1,.8-.06,8.69,8.69,0,0,1,4.23,1.41c0,.17.16.51.34,1a3.65,3.65,0,0,1,.27,1.08A1,1,0,0,1,395.87,90.79Z"/><path class="cls-1" d="M223.63,60.51c.18.89-.47,1.38-1.94,1.47a4.35,4.35,0,0,1-3-1.27,7.73,7.73,0,0,1-2-3.69,28.16,28.16,0,0,1-.8-6.65,53.48,53.48,0,0,0-.47-6.64q-.88,3-2.89,9c-.81,2.19-1.3,3.45-1.48,3.76-.71,1.39-1.61,2-2.69,1.88a7.56,7.56,0,0,1-5-3.63,22.42,22.42,0,0,1-2.15-6,35.42,35.42,0,0,0-1.81-6q-2.9,14-6.18,20.94c-.31.67-1.25.63-2.82-.13a2.94,2.94,0,0,1-1.94-2.69,23.9,23.9,0,0,1,1.4-4.29q.62-1.62,4.7-15.51a126.48,126.48,0,0,0,3-17,8.42,8.42,0,0,0,.67-1.41,1.22,1.22,0,0,1,1.21-.94,4.43,4.43,0,0,1,3.15.87,48,48,0,0,0,.64,6.28,49.94,49.94,0,0,1,.64,6.54q.6,3.76,1.14,7.59a17.08,17.08,0,0,0,2.69,7q6.43-17.92,8.19-28.33c.17-.72.84-1.07,2-1.07,1.65,0,2.59.53,2.81,1.6a29,29,0,0,1,.47,5.58c0,.67,0,2.12-.13,4.36,0,1.88,0,3.4,0,4.57A150.42,150.42,0,0,0,223.63,60.51Z"/><path class="cls-1" d="M251.09,22.78a77.9,77.9,0,0,1-2.69,12.56q-3,10.53-3.49,12.75a31.85,31.85,0,0,1-5.64,12.35c-1.74,2.37-3.76,3.53-6,3.49-2,0-3.51-1.32-4.5-3.83a39.41,39.41,0,0,1-2.55-14.83,107.93,107.93,0,0,1,.94-12.62,32,32,0,0,1-.07-4.16c0-2.78,1.08-4.16,3.22-4.16a3.47,3.47,0,0,1,1.45.36c.51.25,1,.51,1.51.78,0,2.28,0,5.64-.2,10.07q-.34,7.11-.34,10.27,0,3.34.2,6.11a41.1,41.1,0,0,0,1.21,5.36,22.14,22.14,0,0,0,4.43-8.39c.36-1.16,1.07-4.34,2.15-9.53a43.53,43.53,0,0,1,2.88-9.26,12.29,12.29,0,0,0,.81-3.56,14.25,14.25,0,0,1,.8-3.62,2.61,2.61,0,0,1,2.56-1.62A3.8,3.8,0,0,1,251.09,22.78Z"/><path class="cls-1" d="M282.83,20.84q-2.61,4.89-7.45,18.32A114.28,114.28,0,0,0,272,52.25a92.54,92.54,0,0,1-3.63,13.22,1.84,1.84,0,0,1-1.41.68,4.68,4.68,0,0,1-2.41-1Q262,58.9,258.47,44.6q-3.3-13.64-6.58-20.74c.58-1.12,1.07-1.68,1.48-1.68a1.93,1.93,0,0,1,1.07-.34c.71,0,2,.67,3.76,2a101,101,0,0,1,4.63,13.49q1.74,6.91,3.56,13.76,2.48-8.19,5-16.45a139.32,139.32,0,0,1,6-16c.67-1.17,1.83-1.54,3.49-1.14a1.62,1.62,0,0,1,.67.5,1.42,1.42,0,0,0,1,.47c.4,0,.6.35.6,1A2.94,2.94,0,0,1,282.83,20.84Z"/><path class="cls-1" d="M307.2,25.8a68.8,68.8,0,0,1-7.32,2.35,74.7,74.7,0,0,0-7.32,2.35,35.54,35.54,0,0,0-.87,7.79,7.05,7.05,0,0,0,2.48.4,23.12,23.12,0,0,0,3.16-.33,22,22,0,0,1,3.15-.34,6.15,6.15,0,0,1,3.23.81,4.57,4.57,0,0,1,.94,1.74.82.82,0,0,1-.47.74,7.89,7.89,0,0,0-.94.94,1.57,1.57,0,0,1-1.35.54,29.3,29.3,0,0,1-5.16.4,15,15,0,0,0-5,.8,33.66,33.66,0,0,0-1.27,7.86,7.5,7.5,0,0,0,.53,3.09q3.15,2.2,10.94,1.88a1.83,1.83,0,0,0,1.15-.51,1.74,1.74,0,0,1,1-.5q1.88-.41,2.48,2.82a2.7,2.7,0,0,1-.37,2,2,2,0,0,1-1.64,1,50.08,50.08,0,0,1-14.1-1.27A7.18,7.18,0,0,1,287,58.22a6,6,0,0,1-1.74-3.62,44.57,44.57,0,0,1,0-10.47c-1.25-.85-1.81-1.68-1.68-2.48.05-.41.39-.78,1-1.11s1-.68,1.11-1,.27-2.49.53-6.38q-3.75-.73-3.69-2.82a3.25,3.25,0,0,1,1.89-2.82A31.87,31.87,0,0,1,288.07,26a79.59,79.59,0,0,1,5-8q4.37-6.31,5.44-8a1.31,1.31,0,0,1,1.15-.61,3.13,3.13,0,0,1,2.14,1,2.7,2.7,0,0,1,1,2q-.27,4.64-5.1,10.07a33,33,0,0,1,5.16-1.14,8.69,8.69,0,0,1,4.24,1.41,10.5,10.5,0,0,0,.33,1,3.6,3.6,0,0,1,.27,1.07A1,1,0,0,1,307.2,25.8Z"/><path class="cls-1" d="M323,18.76c0,.89-.65,1.67-2,2.35a1.5,1.5,0,0,1-1.14.06c-.63-.18-1-.27-1-.27a1.18,1.18,0,0,0-.8.4,12.06,12.06,0,0,0-3.63,8.87,10.42,10.42,0,0,0,.61,3.62c.17.49,1.88,4,5.1,10.41q3.22,6.44,3.22,10.94a15,15,0,0,1-1.81,7.11,11,11,0,0,1-3,3,6.19,6.19,0,0,1-3.49,1.41,3,3,0,0,1-1.14-.21c-1.35-.58-2-1.32-2-2.21a3.26,3.26,0,0,1,1-2,1.82,1.82,0,0,1,1.27-.4,1.45,1.45,0,0,0,1.35-.81A13.84,13.84,0,0,0,317,55q0-4.35-4.33-12.65c-2.89-5.53-4.33-9.94-4.33-13.26A16.08,16.08,0,0,1,310,21.77a11.1,11.1,0,0,1,5.17-5.3,7,7,0,0,1,3-.73,5.44,5.44,0,0,1,4.23,1.54A2.19,2.19,0,0,1,323,18.76Z"/><path class="cls-1" d="M351,57.55a2.2,2.2,0,0,1,.21.88,1.89,1.89,0,0,1-.67,1.37c-.45.43-.9.84-1.35,1.24A98.93,98.93,0,0,1,330,57.42a30,30,0,0,1-3.16-1.07,5,5,0,0,1-2.35-2.09,5.94,5.94,0,0,0,0-1.34Q332.18,44.21,334,42a81.62,81.62,0,0,0,8.19-11.88A8.83,8.83,0,0,0,337.81,29a28.26,28.26,0,0,0-4.13.43,28.53,28.53,0,0,1-4.06.44,10,10,0,0,1-3.16-.47c-1.3-.76-1.95-1.57-1.95-2.42a1.36,1.36,0,0,1,.34-.87,8.92,8.92,0,0,1,5.64-1.54h2.42a13.06,13.06,0,0,0,3.22-.34c1.79.13,3.6.29,5.43.47a11.54,11.54,0,0,1,5,1.61,3.57,3.57,0,0,1,1.77,3,3.15,3.15,0,0,1-.19,1.08,48.11,48.11,0,0,1-7,11.41q-4.43,5.24-8.86,10.4a108.5,108.5,0,0,0,17.18,3.83C350,56.08,350.47,56.57,351,57.55Z"/><path class="cls-1" d="M373.85,25.8a68.48,68.48,0,0,1-7.31,2.35,73.8,73.8,0,0,0-7.32,2.35,35.54,35.54,0,0,0-.87,7.79,7,7,0,0,0,2.48.4,23.27,23.27,0,0,0,3.16-.33,22,22,0,0,1,3.15-.34,6.09,6.09,0,0,1,3.22.81,4.57,4.57,0,0,1,.94,1.74.82.82,0,0,1-.47.74,10.06,10.06,0,0,0-.94.94,1.55,1.55,0,0,1-1.34.54,29.35,29.35,0,0,1-5.17.4,14.88,14.88,0,0,0-5,.8,33.77,33.77,0,0,0-1.28,7.86,7.32,7.32,0,0,0,.54,3.09q3.15,2.2,10.94,1.88a1.8,1.8,0,0,0,1.14-.51,1.8,1.8,0,0,1,1-.5q1.88-.41,2.48,2.82a2.7,2.7,0,0,1-.36,2,2,2,0,0,1-1.65,1,50.08,50.08,0,0,1-14.1-1.27,7.15,7.15,0,0,1-3.42-2.09,6,6,0,0,1-1.75-3.62,45.68,45.68,0,0,1,0-10.47c-1.25-.85-1.81-1.68-1.67-2.48,0-.41.39-.78,1-1.11s1-.68,1.1-1,.27-2.49.54-6.38q-3.77-.73-3.69-2.82a3.61,3.61,0,0,1,2.35-3.09l4.29-1.74a33.89,33.89,0,0,1,6.31-2.28c2.15-.59,4.32-1.14,6.52-1.68a3.72,3.72,0,0,1,.8-.07,8.69,8.69,0,0,1,4.23,1.41c0,.18.16.51.34,1a3.5,3.5,0,0,1,.26,1.07A1,1,0,0,1,373.85,25.8Z"/><path class="cls-1" d="M409.16,17.55c-.41,1.61-1.16,2.55-2.28,2.82q-4.36,1.06-15.17,2.82Q390.36,39.9,390.37,51q0,4.23.13,8.33a6.28,6.28,0,0,1-.13,1.94,1.24,1.24,0,0,1-1.35,1,4.16,4.16,0,0,1-3.22-1.65,6.15,6.15,0,0,1-1.41-3.52c-.09-1.65-.14-3.4-.14-5.23q0-4.44.61-14c.41-6.14.58-10.81.54-14a24.73,24.73,0,0,0-5,.33,42.06,42.06,0,0,1-5.1.54A8.06,8.06,0,0,1,369.89,23q-.81-1.75-.81-1.83a1.62,1.62,0,0,1,.47-1,45.58,45.58,0,0,1,8.8-1.36,24.47,24.47,0,0,0,8.72-2.16,16.5,16.5,0,0,0,5.38.8,22.31,22.31,0,0,0,5.77-.73,36.18,36.18,0,0,0,4.09-.94,11.31,11.31,0,0,1,4-.41c.81,0,1.14.34,1,1C408.56,16.34,409.16,16.74,409.16,17.55Z"/><path class="cls-1" d="M423.25,25.8a68.48,68.48,0,0,1-7.31,2.35,72.93,72.93,0,0,0-7.32,2.35,34.9,34.9,0,0,0-.87,7.79,7,7,0,0,0,2.48.4,23.27,23.27,0,0,0,3.16-.33,22,22,0,0,1,3.15-.34,6.09,6.09,0,0,1,3.22.81,4.57,4.57,0,0,1,.94,1.74.82.82,0,0,1-.47.74,8.84,8.84,0,0,0-.94.94,1.55,1.55,0,0,1-1.34.54,29.35,29.35,0,0,1-5.17.4,14.88,14.88,0,0,0-5,.8,33.77,33.77,0,0,0-1.28,7.86,7.32,7.32,0,0,0,.54,3.09q3.15,2.2,10.94,1.88a1.8,1.8,0,0,0,1.14-.51,1.77,1.77,0,0,1,1-.5q1.88-.41,2.48,2.82a2.65,2.65,0,0,1-.37,2,2,2,0,0,1-1.64,1,50.08,50.08,0,0,1-14.1-1.27,7.15,7.15,0,0,1-3.42-2.09,6,6,0,0,1-1.75-3.62,45.68,45.68,0,0,1,0-10.47c-1.25-.85-1.81-1.68-1.67-2.48,0-.41.38-.78,1-1.11s1-.68,1.11-1,.27-2.49.54-6.38q-3.76-.73-3.69-2.82A3.6,3.6,0,0,1,401,27.21l4.29-1.74a33.89,33.89,0,0,1,6.31-2.28c2.15-.59,4.32-1.14,6.51-1.68a3.88,3.88,0,0,1,.81-.07,8.69,8.69,0,0,1,4.23,1.41c.05.18.15.51.33,1a3.6,3.6,0,0,1,.27,1.07A1,1,0,0,1,423.25,25.8Z"/><path class="cls-1" d="M447.82,55.67a1.16,1.16,0,0,1,.4.94,9.89,9.89,0,0,1-.53,2,1.78,1.78,0,0,0-.47-.07,2.34,2.34,0,0,0-1.05.34,2.33,2.33,0,0,1-1,.33,1.38,1.38,0,0,1-.74-.27q-4.48-2.82-14-8.45c.13,1.65.25,4,.33,7.11a14.28,14.28,0,0,0,.14,1.61,13.8,13.8,0,0,1,.13,1.55A2.2,2.2,0,0,1,429.69,63a2,2,0,0,1-1.14.27c-.53,0-.87-.16-1-.47a2.78,2.78,0,0,1-2-2.35,69.43,69.43,0,0,1-.81-11.34q0-2.35.13-7t.14-7a71.3,71.3,0,0,0-.94-12.35c-.09-.54.22-.9.94-1.08l1.67-.27c.59.18,1.19.4,1.82.64a1.4,1.4,0,0,1,1,1.18,113.17,113.17,0,0,1,.86,14.49,75,75,0,0,0,6.31-6.57q3-3.43,6-6.92a4.57,4.57,0,0,1,1.74-.33c1.75,0,2.67.6,2.76,1.81-1.25,2.77-3.72,6.06-7.38,9.87q-6.45,6.65-8.26,9.46,4.15,2.49,8.39,5A69,69,0,0,1,447.82,55.67Z"/><path class="cls-1" d="M244.9,12.18a13,13,0,0,1-2.78,7.35q-2.52,3.18-5.14,6.21c-.76,1-2.14,1.27-4.16.87a1,1,0,0,1-.94-1.07,5.81,5.81,0,0,1,.74-2.09q2.48-5,7.92-13.76a1.3,1.3,0,0,1,1.14-.6,3.29,3.29,0,0,1,2.19,1A2.63,2.63,0,0,1,244.9,12.18Z"/><path class="cls-1" d="M254.58,12.18a13,13,0,0,1-2.78,7.35q-2.52,3.18-5.14,6.21c-.76,1-2.14,1.27-4.16.87a1,1,0,0,1-.94-1.07,5.81,5.81,0,0,1,.74-2.09q2.47-5,7.92-13.76a1.3,1.3,0,0,1,1.14-.6,3.29,3.29,0,0,1,2.19,1A2.63,2.63,0,0,1,254.58,12.18Z"/></g></g></svg>